<mxfile host="Electron" modified="2023-10-02T14:40:15.055Z" agent="Mozilla/5.0 (Windows NT 10.0; Win64; x64) AppleWebKit/537.36 (KHTML, like Gecko) draw.io/22.0.0 Chrome/114.0.5735.289 Electron/25.8.3 Safari/537.36" etag="dsxg2X8irgM7CgRM2KcL" version="22.0.0" type="device">
  <diagram id="07fea595-8f29-1299-0266-81d95cde20df" name="Page-1">
    <mxGraphModel dx="-1048" dy="-158" grid="1" gridSize="10" guides="1" tooltips="1" connect="1" arrows="1" fold="1" page="1" pageScale="1" pageWidth="1169" pageHeight="827" background="none" math="0" shadow="0">
      <root>
        <mxCell id="0" />
        <mxCell id="1" parent="0" />
        <mxCell id="727" value="" style="edgeStyle=none;html=1;fontColor=#000000;strokeWidth=3;strokeColor=#000000;" parent="1" edge="1">
          <mxGeometry width="100" height="100" relative="1" as="geometry">
            <mxPoint x="2437.5" y="1594.5" as="sourcePoint" />
            <mxPoint x="2438" y="1070" as="targetPoint" />
          </mxGeometry>
        </mxCell>
        <mxCell id="734" value="" style="edgeStyle=none;html=1;fontColor=#000000;strokeWidth=3;strokeColor=#000000;" parent="1" edge="1">
          <mxGeometry width="100" height="100" relative="1" as="geometry">
            <mxPoint x="2437.5" y="1594.5" as="sourcePoint" />
            <mxPoint x="3357.5" y="1594.5" as="targetPoint" />
          </mxGeometry>
        </mxCell>
        <mxCell id="735" value="Tempo" style="text;spacingTop=-5;html=1;fontSize=18;fontStyle=0;points=[];strokeColor=none;" parent="1" vertex="1">
          <mxGeometry x="3367.5" y="1582.5" width="80" height="20" as="geometry" />
        </mxCell>
        <mxCell id="736" value="S1" style="text;spacingTop=-5;align=center;verticalAlign=middle;fontStyle=0;html=1;fontSize=18;points=[];strokeColor=none;" parent="1" vertex="1">
          <mxGeometry x="2480.5" y="1620" width="40" height="30" as="geometry" />
        </mxCell>
        <mxCell id="737" value="S2" style="text;spacingTop=-5;align=center;verticalAlign=middle;fontStyle=0;html=1;fontSize=18;points=[];strokeColor=none;" parent="1" vertex="1">
          <mxGeometry x="2527" y="1620" width="30" height="30" as="geometry" />
        </mxCell>
        <mxCell id="738" value="S3" style="text;spacingTop=-5;align=center;verticalAlign=middle;fontStyle=0;html=1;fontSize=18;points=[];strokeColor=none;" parent="1" vertex="1">
          <mxGeometry x="2557.5" y="1620" width="40" height="30" as="geometry" />
        </mxCell>
        <mxCell id="739" value="" style="whiteSpace=wrap;fillColor=#12AAB5;gradientColor=none;gradientDirection=east;strokeColor=none;html=1;fontColor=#23445d;" parent="1" vertex="1">
          <mxGeometry x="3280" y="1034.5" width="35.000000000000114" height="30.000000000000227" as="geometry" />
        </mxCell>
        <mxCell id="740" value="" style="whiteSpace=wrap;fillColor=#E3F030;gradientColor=none;gradientDirection=east;strokeColor=none;html=1;fontColor=#23445d;" parent="1" vertex="1">
          <mxGeometry x="3279.9999999999995" y="994.4999999999999" width="35.000000000000114" height="30.000000000000227" as="geometry" />
        </mxCell>
        <mxCell id="743" value="Tempo utilizzo CPU" style="text;spacingTop=-5;html=1;points=[];fontSize=15;" parent="1" vertex="1">
          <mxGeometry x="3320" y="999.5" width="142.5" height="20" as="geometry" />
        </mxCell>
        <mxCell id="744" value="Tempo attesa" style="text;spacingTop=-5;html=1;points=[];fontSize=15;" parent="1" vertex="1">
          <mxGeometry x="3320" y="1039.5" width="80" height="20" as="geometry" />
        </mxCell>
        <mxCell id="746" value="P1" style="text;spacingTop=-5;align=center;verticalAlign=middle;fontStyle=0;html=1;fontSize=18;points=[]" parent="1" vertex="1">
          <mxGeometry x="2407.5" y="1482.25" width="30" height="75.5" as="geometry" />
        </mxCell>
        <mxCell id="747" value="P2" style="text;spacingTop=-5;align=center;verticalAlign=middle;fontStyle=0;html=1;fontSize=18;points=[]" parent="1" vertex="1">
          <mxGeometry x="2407.5" y="1360" width="30" height="80" as="geometry" />
        </mxCell>
        <mxCell id="748" value="P3" style="text;spacingTop=-5;align=center;verticalAlign=middle;fontStyle=0;html=1;fontSize=18;points=[]" parent="1" vertex="1">
          <mxGeometry x="2405.5" y="1240" width="30" height="80" as="geometry" />
        </mxCell>
        <mxCell id="749" value="Mono-tasking" style="text;spacingTop=-5;align=center;verticalAlign=middle;fontSize=30;fontStyle=1;html=1;points=[]" parent="1" vertex="1">
          <mxGeometry x="2470" y="987" width="810" height="45" as="geometry" />
        </mxCell>
        <mxCell id="752" value="S4" style="text;spacingTop=-5;align=center;verticalAlign=middle;fontStyle=0;html=1;fontSize=18;points=[];strokeColor=none;" parent="1" vertex="1">
          <mxGeometry x="2597.5" y="1620" width="40" height="30" as="geometry" />
        </mxCell>
        <mxCell id="qrBDwkn-zHrqh7KRTo5C-752" value="P4" style="text;spacingTop=-5;align=center;verticalAlign=middle;fontStyle=0;html=1;fontSize=18;points=[]" vertex="1" parent="1">
          <mxGeometry x="2405.5" y="1120" width="30" height="80" as="geometry" />
        </mxCell>
        <mxCell id="qrBDwkn-zHrqh7KRTo5C-757" value="" style="whiteSpace=wrap;fillColor=#12AAB5;gradientColor=none;gradientDirection=east;strokeColor=none;html=1;fontColor=#23445d;" vertex="1" parent="1">
          <mxGeometry x="3290" y="1800" width="35.000000000000114" height="30.000000000000227" as="geometry" />
        </mxCell>
        <mxCell id="qrBDwkn-zHrqh7KRTo5C-758" value="Tempo attesa" style="text;spacingTop=-5;html=1;points=[];fontSize=15;" vertex="1" parent="1">
          <mxGeometry x="3330" y="1805" width="80" height="20" as="geometry" />
        </mxCell>
        <mxCell id="qrBDwkn-zHrqh7KRTo5C-767" value="" style="edgeStyle=none;html=1;fontColor=#000000;strokeWidth=3;strokeColor=#000000;" edge="1" parent="1">
          <mxGeometry width="100" height="100" relative="1" as="geometry">
            <mxPoint x="2410" y="2360" as="sourcePoint" />
            <mxPoint x="3330" y="2360" as="targetPoint" />
          </mxGeometry>
        </mxCell>
        <mxCell id="qrBDwkn-zHrqh7KRTo5C-770" value="Processi" style="text;spacingTop=-5;html=1;fontSize=18;fontStyle=0;points=[]" vertex="1" parent="1">
          <mxGeometry x="2400.5" y="1044.5" width="80" height="20" as="geometry" />
        </mxCell>
        <mxCell id="qrBDwkn-zHrqh7KRTo5C-781" value="" style="edgeStyle=none;html=1;fontColor=#000000;strokeWidth=3;strokeColor=#000000;" edge="1" parent="1">
          <mxGeometry width="100" height="100" relative="1" as="geometry">
            <mxPoint x="2410" y="2360" as="sourcePoint" />
            <mxPoint x="2410.5" y="1830" as="targetPoint" />
          </mxGeometry>
        </mxCell>
        <mxCell id="qrBDwkn-zHrqh7KRTo5C-782" value="P1" style="text;spacingTop=-5;align=center;verticalAlign=middle;fontStyle=0;html=1;fontSize=18;points=[]" vertex="1" parent="1">
          <mxGeometry x="2370.5" y="2242.25" width="30" height="75.5" as="geometry" />
        </mxCell>
        <mxCell id="qrBDwkn-zHrqh7KRTo5C-783" value="P2" style="text;spacingTop=-5;align=center;verticalAlign=middle;fontStyle=0;html=1;fontSize=18;points=[]" vertex="1" parent="1">
          <mxGeometry x="2370.5" y="2120" width="30" height="80" as="geometry" />
        </mxCell>
        <mxCell id="qrBDwkn-zHrqh7KRTo5C-784" value="P3" style="text;spacingTop=-5;align=center;verticalAlign=middle;fontStyle=0;html=1;fontSize=18;points=[]" vertex="1" parent="1">
          <mxGeometry x="2368.5" y="2000" width="30" height="80" as="geometry" />
        </mxCell>
        <mxCell id="qrBDwkn-zHrqh7KRTo5C-785" value="P4" style="text;spacingTop=-5;align=center;verticalAlign=middle;fontStyle=0;html=1;fontSize=18;points=[]" vertex="1" parent="1">
          <mxGeometry x="2368.5" y="1880" width="30" height="80" as="geometry" />
        </mxCell>
        <mxCell id="qrBDwkn-zHrqh7KRTo5C-786" value="" style="whiteSpace=wrap;fillColor=#E3F030;gradientColor=none;gradientDirection=east;strokeColor=none;html=1;fontColor=#23445d;" vertex="1" parent="1">
          <mxGeometry x="3289.9999999999995" y="1760" width="35.000000000000114" height="30.000000000000227" as="geometry" />
        </mxCell>
        <mxCell id="qrBDwkn-zHrqh7KRTo5C-787" value="Tempo utilizzo CPU" style="text;spacingTop=-5;html=1;points=[];fontSize=15;" vertex="1" parent="1">
          <mxGeometry x="3330" y="1765" width="142.5" height="20" as="geometry" />
        </mxCell>
        <mxCell id="qrBDwkn-zHrqh7KRTo5C-790" value="" style="whiteSpace=wrap;fillColor=#12AAB5;gradientColor=none;gradientDirection=east;strokeColor=none;html=1;fontColor=#23445d;" vertex="1" parent="1">
          <mxGeometry x="3316.25" y="2552.5" width="35.000000000000114" height="30.000000000000227" as="geometry" />
        </mxCell>
        <mxCell id="qrBDwkn-zHrqh7KRTo5C-791" value="Tempo attesa" style="text;spacingTop=-5;html=1;points=[];fontSize=15;" vertex="1" parent="1">
          <mxGeometry x="3356.25" y="2557.5" width="80" height="20" as="geometry" />
        </mxCell>
        <mxCell id="qrBDwkn-zHrqh7KRTo5C-794" value="" style="edgeStyle=none;html=1;fontColor=#000000;strokeWidth=3;strokeColor=#000000;" edge="1" parent="1">
          <mxGeometry width="100" height="100" relative="1" as="geometry">
            <mxPoint x="2397" y="3090" as="sourcePoint" />
            <mxPoint x="3317" y="3090" as="targetPoint" />
          </mxGeometry>
        </mxCell>
        <mxCell id="qrBDwkn-zHrqh7KRTo5C-799" value="" style="edgeStyle=none;html=1;fontColor=#000000;strokeWidth=3;strokeColor=#000000;" edge="1" parent="1">
          <mxGeometry width="100" height="100" relative="1" as="geometry">
            <mxPoint x="2397" y="3090" as="sourcePoint" />
            <mxPoint x="2397.5" y="2560" as="targetPoint" />
          </mxGeometry>
        </mxCell>
        <mxCell id="qrBDwkn-zHrqh7KRTo5C-800" value="P1" style="text;spacingTop=-5;align=center;verticalAlign=middle;fontStyle=0;html=1;fontSize=18;points=[]" vertex="1" parent="1">
          <mxGeometry x="2357.5" y="2960" width="30" height="75.5" as="geometry" />
        </mxCell>
        <mxCell id="qrBDwkn-zHrqh7KRTo5C-801" value="P2" style="text;spacingTop=-5;align=center;verticalAlign=middle;fontStyle=0;html=1;fontSize=18;points=[]" vertex="1" parent="1">
          <mxGeometry x="2357.5" y="2840" width="30" height="80" as="geometry" />
        </mxCell>
        <mxCell id="qrBDwkn-zHrqh7KRTo5C-802" value="P3" style="text;spacingTop=-5;align=center;verticalAlign=middle;fontStyle=0;html=1;fontSize=18;points=[]" vertex="1" parent="1">
          <mxGeometry x="2357.5" y="2720" width="30" height="80" as="geometry" />
        </mxCell>
        <mxCell id="qrBDwkn-zHrqh7KRTo5C-803" value="P4" style="text;spacingTop=-5;align=center;verticalAlign=middle;fontStyle=0;html=1;fontSize=18;points=[]" vertex="1" parent="1">
          <mxGeometry x="2357.5" y="2600" width="30" height="80" as="geometry" />
        </mxCell>
        <mxCell id="qrBDwkn-zHrqh7KRTo5C-804" value="" style="whiteSpace=wrap;fillColor=#E3F030;gradientColor=none;gradientDirection=east;strokeColor=none;html=1;fontColor=#23445d;" vertex="1" parent="1">
          <mxGeometry x="3316.2499999999995" y="2512.5" width="35.000000000000114" height="30.000000000000227" as="geometry" />
        </mxCell>
        <mxCell id="qrBDwkn-zHrqh7KRTo5C-805" value="S5" style="text;spacingTop=-5;align=center;verticalAlign=middle;fontStyle=0;html=1;fontSize=18;points=[];strokeColor=none;" vertex="1" parent="1">
          <mxGeometry x="2637.5" y="1620" width="40" height="30" as="geometry" />
        </mxCell>
        <mxCell id="qrBDwkn-zHrqh7KRTo5C-806" value="S11" style="text;spacingTop=-5;align=center;verticalAlign=middle;fontStyle=0;html=1;fontSize=18;points=[];strokeColor=none;" vertex="1" parent="1">
          <mxGeometry x="2883" y="1620" width="40" height="30" as="geometry" />
        </mxCell>
        <mxCell id="qrBDwkn-zHrqh7KRTo5C-807" value="S10" style="text;spacingTop=-5;align=center;verticalAlign=middle;fontStyle=0;html=1;fontSize=18;points=[];strokeColor=none;" vertex="1" parent="1">
          <mxGeometry x="2837" y="1620" width="40" height="30" as="geometry" />
        </mxCell>
        <mxCell id="qrBDwkn-zHrqh7KRTo5C-808" value="S9" style="text;spacingTop=-5;align=center;verticalAlign=middle;fontStyle=0;html=1;fontSize=18;points=[];strokeColor=none;" vertex="1" parent="1">
          <mxGeometry x="2797" y="1620" width="40" height="30" as="geometry" />
        </mxCell>
        <mxCell id="qrBDwkn-zHrqh7KRTo5C-809" value="S8" style="text;spacingTop=-5;align=center;verticalAlign=middle;fontStyle=0;html=1;fontSize=18;points=[];strokeColor=none;" vertex="1" parent="1">
          <mxGeometry x="2757.5" y="1620" width="40" height="30" as="geometry" />
        </mxCell>
        <mxCell id="qrBDwkn-zHrqh7KRTo5C-810" value="S7" style="text;spacingTop=-5;align=center;verticalAlign=middle;fontStyle=0;html=1;fontSize=18;points=[];strokeColor=none;" vertex="1" parent="1">
          <mxGeometry x="2717.5" y="1620" width="40" height="30" as="geometry" />
        </mxCell>
        <mxCell id="qrBDwkn-zHrqh7KRTo5C-811" value="S6" style="text;spacingTop=-5;align=center;verticalAlign=middle;fontStyle=0;html=1;fontSize=18;points=[];strokeColor=none;" vertex="1" parent="1">
          <mxGeometry x="2677.5" y="1620" width="40" height="30" as="geometry" />
        </mxCell>
        <mxCell id="qrBDwkn-zHrqh7KRTo5C-812" value="" style="whiteSpace=wrap;fillColor=#E2F022;gradientColor=none;gradientDirection=east;strokeColor=none;html=1;fontColor=#23445d;" vertex="1" parent="1">
          <mxGeometry x="2720" y="1360" width="80" height="80" as="geometry" />
        </mxCell>
        <mxCell id="qrBDwkn-zHrqh7KRTo5C-813" value="" style="whiteSpace=wrap;fillColor=#E2F022;gradientColor=none;gradientDirection=east;strokeColor=none;html=1;fontColor=#23445d;" vertex="1" parent="1">
          <mxGeometry x="2480.5" y="1480" width="120" height="80" as="geometry" />
        </mxCell>
        <mxCell id="qrBDwkn-zHrqh7KRTo5C-814" value="" style="whiteSpace=wrap;fillColor=#12AAB5;gradientColor=none;gradientDirection=east;strokeColor=none;html=1;fontColor=#23445d;" vertex="1" parent="1">
          <mxGeometry x="2600.5" y="1480" width="79.5" height="80" as="geometry" />
        </mxCell>
        <mxCell id="qrBDwkn-zHrqh7KRTo5C-816" value="" style="whiteSpace=wrap;fillColor=#E2F022;gradientColor=none;gradientDirection=east;strokeColor=none;html=1;fontColor=#23445d;" vertex="1" parent="1">
          <mxGeometry x="2680" y="1480" width="40" height="80" as="geometry" />
        </mxCell>
        <mxCell id="qrBDwkn-zHrqh7KRTo5C-819" value="" style="whiteSpace=wrap;fillColor=#E2F022;gradientColor=none;gradientDirection=east;strokeColor=none;html=1;fontColor=#23445d;" vertex="1" parent="1">
          <mxGeometry x="2840" y="1240" width="40" height="80" as="geometry" />
        </mxCell>
        <mxCell id="qrBDwkn-zHrqh7KRTo5C-820" value="" style="whiteSpace=wrap;fillColor=#E2F022;gradientColor=none;gradientDirection=east;strokeColor=none;html=1;fontColor=#23445d;" vertex="1" parent="1">
          <mxGeometry x="2880" y="1120" width="160" height="80" as="geometry" />
        </mxCell>
        <mxCell id="qrBDwkn-zHrqh7KRTo5C-821" style="edgeStyle=orthogonalEdgeStyle;rounded=0;orthogonalLoop=1;jettySize=auto;html=1;exitX=0.5;exitY=1;exitDx=0;exitDy=0;" edge="1" parent="1" source="qrBDwkn-zHrqh7KRTo5C-819" target="qrBDwkn-zHrqh7KRTo5C-819">
          <mxGeometry relative="1" as="geometry" />
        </mxCell>
        <mxCell id="qrBDwkn-zHrqh7KRTo5C-822" value="" style="whiteSpace=wrap;fillColor=#12AAB5;gradientColor=none;gradientDirection=east;strokeColor=none;html=1;fontColor=#23445d;" vertex="1" parent="1">
          <mxGeometry x="2800" y="1360" width="40" height="80" as="geometry" />
        </mxCell>
        <mxCell id="qrBDwkn-zHrqh7KRTo5C-823" value="" style="whiteSpace=wrap;fillColor=#12AAB5;gradientColor=none;gradientDirection=east;strokeColor=none;html=1;fontColor=#23445d;" vertex="1" parent="1">
          <mxGeometry x="3040" y="1120" width="40" height="80" as="geometry" />
        </mxCell>
        <mxCell id="qrBDwkn-zHrqh7KRTo5C-824" value="" style="whiteSpace=wrap;fillColor=#E2F022;gradientColor=none;gradientDirection=east;strokeColor=none;html=1;fontColor=#23445d;" vertex="1" parent="1">
          <mxGeometry x="3080" y="1120" width="80" height="80" as="geometry" />
        </mxCell>
        <mxCell id="qrBDwkn-zHrqh7KRTo5C-825" value="S16" style="text;spacingTop=-5;align=center;verticalAlign=middle;fontStyle=0;html=1;fontSize=18;points=[];strokeColor=none;" vertex="1" parent="1">
          <mxGeometry x="3080" y="1620" width="40" height="30" as="geometry" />
        </mxCell>
        <mxCell id="qrBDwkn-zHrqh7KRTo5C-826" value="S15" style="text;spacingTop=-5;align=center;verticalAlign=middle;fontStyle=0;html=1;fontSize=18;points=[];strokeColor=none;" vertex="1" parent="1">
          <mxGeometry x="3040" y="1620" width="40" height="30" as="geometry" />
        </mxCell>
        <mxCell id="qrBDwkn-zHrqh7KRTo5C-827" value="S14" style="text;spacingTop=-5;align=center;verticalAlign=middle;fontStyle=0;html=1;fontSize=18;points=[];strokeColor=none;" vertex="1" parent="1">
          <mxGeometry x="3003" y="1620" width="40" height="30" as="geometry" />
        </mxCell>
        <mxCell id="qrBDwkn-zHrqh7KRTo5C-828" value="S13" style="text;spacingTop=-5;align=center;verticalAlign=middle;fontStyle=0;html=1;fontSize=18;points=[];strokeColor=none;" vertex="1" parent="1">
          <mxGeometry x="2963" y="1620" width="40" height="30" as="geometry" />
        </mxCell>
        <mxCell id="qrBDwkn-zHrqh7KRTo5C-829" value="S12" style="text;spacingTop=-5;align=center;verticalAlign=middle;fontStyle=0;html=1;fontSize=18;points=[];strokeColor=none;" vertex="1" parent="1">
          <mxGeometry x="2923" y="1620" width="40" height="30" as="geometry" />
        </mxCell>
        <mxCell id="qrBDwkn-zHrqh7KRTo5C-830" value="S17" style="text;spacingTop=-5;align=center;verticalAlign=middle;fontStyle=0;html=1;fontSize=18;points=[];strokeColor=none;" vertex="1" parent="1">
          <mxGeometry x="3120" y="1620" width="40" height="30" as="geometry" />
        </mxCell>
        <mxCell id="qrBDwkn-zHrqh7KRTo5C-832" value="Processi" style="text;spacingTop=-5;html=1;fontSize=18;fontStyle=0;points=[]" vertex="1" parent="1">
          <mxGeometry x="2357.5" y="1780" width="80" height="20" as="geometry" />
        </mxCell>
        <mxCell id="qrBDwkn-zHrqh7KRTo5C-833" value="Tempo" style="text;spacingTop=-5;html=1;fontSize=18;fontStyle=0;points=[];strokeColor=none;" vertex="1" parent="1">
          <mxGeometry x="3348.75" y="2360" width="80" height="20" as="geometry" />
        </mxCell>
        <mxCell id="qrBDwkn-zHrqh7KRTo5C-834" value="Multi-tasking" style="text;spacingTop=-5;align=center;verticalAlign=middle;fontSize=30;fontStyle=1;html=1;points=[]" vertex="1" parent="1">
          <mxGeometry x="2480" y="1755" width="810" height="45" as="geometry" />
        </mxCell>
        <mxCell id="qrBDwkn-zHrqh7KRTo5C-836" value="" style="whiteSpace=wrap;fillColor=#E2F022;gradientColor=none;gradientDirection=east;strokeColor=none;html=1;fontColor=#23445d;" vertex="1" parent="1">
          <mxGeometry x="2440.5" y="2240" width="120" height="80" as="geometry" />
        </mxCell>
        <mxCell id="qrBDwkn-zHrqh7KRTo5C-837" value="" style="whiteSpace=wrap;fillColor=#12AAB5;gradientColor=none;gradientDirection=east;strokeColor=none;html=1;fontColor=#23445d;" vertex="1" parent="1">
          <mxGeometry x="2560.5" y="2240" width="79.5" height="80" as="geometry" />
        </mxCell>
        <mxCell id="qrBDwkn-zHrqh7KRTo5C-838" value="" style="whiteSpace=wrap;fillColor=#12AAB5;gradientColor=none;gradientDirection=east;strokeColor=none;html=1;fontColor=#23445d;" vertex="1" parent="1">
          <mxGeometry x="2638" y="2120" width="42" height="80" as="geometry" />
        </mxCell>
        <mxCell id="qrBDwkn-zHrqh7KRTo5C-839" value="" style="whiteSpace=wrap;fillColor=#E2F022;gradientColor=none;gradientDirection=east;strokeColor=none;html=1;fontColor=#23445d;" vertex="1" parent="1">
          <mxGeometry x="2720" y="1880" width="160" height="80" as="geometry" />
        </mxCell>
        <mxCell id="qrBDwkn-zHrqh7KRTo5C-840" value="" style="whiteSpace=wrap;fillColor=#E2F022;gradientColor=none;gradientDirection=east;strokeColor=none;html=1;fontColor=#23445d;" vertex="1" parent="1">
          <mxGeometry x="2680" y="2000" width="40" height="80" as="geometry" />
        </mxCell>
        <mxCell id="qrBDwkn-zHrqh7KRTo5C-841" value="" style="whiteSpace=wrap;fillColor=#E2F022;gradientColor=none;gradientDirection=east;strokeColor=none;html=1;fontColor=#23445d;" vertex="1" parent="1">
          <mxGeometry x="2560.5" y="2120" width="79.5" height="80" as="geometry" />
        </mxCell>
        <mxCell id="qrBDwkn-zHrqh7KRTo5C-842" value="S1" style="text;spacingTop=-5;align=center;verticalAlign=middle;fontStyle=0;html=1;fontSize=18;points=[];strokeColor=none;" vertex="1" parent="1">
          <mxGeometry x="2440.5" y="2370" width="40" height="30" as="geometry" />
        </mxCell>
        <mxCell id="qrBDwkn-zHrqh7KRTo5C-843" value="S2" style="text;spacingTop=-5;align=center;verticalAlign=middle;fontStyle=0;html=1;fontSize=18;points=[];strokeColor=none;" vertex="1" parent="1">
          <mxGeometry x="2487" y="2370" width="30" height="30" as="geometry" />
        </mxCell>
        <mxCell id="qrBDwkn-zHrqh7KRTo5C-844" value="S3" style="text;spacingTop=-5;align=center;verticalAlign=middle;fontStyle=0;html=1;fontSize=18;points=[];strokeColor=none;" vertex="1" parent="1">
          <mxGeometry x="2517.5" y="2370" width="40" height="30" as="geometry" />
        </mxCell>
        <mxCell id="qrBDwkn-zHrqh7KRTo5C-845" value="S4" style="text;spacingTop=-5;align=center;verticalAlign=middle;fontStyle=0;html=1;fontSize=18;points=[];strokeColor=none;" vertex="1" parent="1">
          <mxGeometry x="2557.5" y="2370" width="40" height="30" as="geometry" />
        </mxCell>
        <mxCell id="qrBDwkn-zHrqh7KRTo5C-846" value="S5" style="text;spacingTop=-5;align=center;verticalAlign=middle;fontStyle=0;html=1;fontSize=18;points=[];strokeColor=none;" vertex="1" parent="1">
          <mxGeometry x="2597.5" y="2370" width="40" height="30" as="geometry" />
        </mxCell>
        <mxCell id="qrBDwkn-zHrqh7KRTo5C-847" value="S11" style="text;spacingTop=-5;align=center;verticalAlign=middle;fontStyle=0;html=1;fontSize=18;points=[];strokeColor=none;" vertex="1" parent="1">
          <mxGeometry x="2843" y="2370" width="40" height="30" as="geometry" />
        </mxCell>
        <mxCell id="qrBDwkn-zHrqh7KRTo5C-848" value="S10" style="text;spacingTop=-5;align=center;verticalAlign=middle;fontStyle=0;html=1;fontSize=18;points=[];strokeColor=none;" vertex="1" parent="1">
          <mxGeometry x="2797" y="2370" width="40" height="30" as="geometry" />
        </mxCell>
        <mxCell id="qrBDwkn-zHrqh7KRTo5C-849" value="S9" style="text;spacingTop=-5;align=center;verticalAlign=middle;fontStyle=0;html=1;fontSize=18;points=[];strokeColor=none;" vertex="1" parent="1">
          <mxGeometry x="2757" y="2370" width="40" height="30" as="geometry" />
        </mxCell>
        <mxCell id="qrBDwkn-zHrqh7KRTo5C-850" value="S8" style="text;spacingTop=-5;align=center;verticalAlign=middle;fontStyle=0;html=1;fontSize=18;points=[];strokeColor=none;" vertex="1" parent="1">
          <mxGeometry x="2708.75" y="2370" width="57.5" height="30" as="geometry" />
        </mxCell>
        <mxCell id="qrBDwkn-zHrqh7KRTo5C-851" value="S7" style="text;spacingTop=-5;align=center;verticalAlign=middle;fontStyle=0;html=1;fontSize=18;points=[];strokeColor=none;" vertex="1" parent="1">
          <mxGeometry x="2677.5" y="2370" width="40" height="30" as="geometry" />
        </mxCell>
        <mxCell id="qrBDwkn-zHrqh7KRTo5C-852" value="S6" style="text;spacingTop=-5;align=center;verticalAlign=middle;fontStyle=0;html=1;fontSize=18;points=[];strokeColor=none;" vertex="1" parent="1">
          <mxGeometry x="2637.5" y="2370" width="40" height="30" as="geometry" />
        </mxCell>
        <mxCell id="qrBDwkn-zHrqh7KRTo5C-853" value="S16" style="text;spacingTop=-5;align=center;verticalAlign=middle;fontStyle=0;html=1;fontSize=18;points=[];strokeColor=none;" vertex="1" parent="1">
          <mxGeometry x="3040" y="2370" width="40" height="30" as="geometry" />
        </mxCell>
        <mxCell id="qrBDwkn-zHrqh7KRTo5C-854" value="S15" style="text;spacingTop=-5;align=center;verticalAlign=middle;fontStyle=0;html=1;fontSize=18;points=[];strokeColor=none;" vertex="1" parent="1">
          <mxGeometry x="3000" y="2370" width="40" height="30" as="geometry" />
        </mxCell>
        <mxCell id="qrBDwkn-zHrqh7KRTo5C-855" value="S14" style="text;spacingTop=-5;align=center;verticalAlign=middle;fontStyle=0;html=1;fontSize=18;points=[];strokeColor=none;" vertex="1" parent="1">
          <mxGeometry x="2963" y="2370" width="40" height="30" as="geometry" />
        </mxCell>
        <mxCell id="qrBDwkn-zHrqh7KRTo5C-856" value="S13" style="text;spacingTop=-5;align=center;verticalAlign=middle;fontStyle=0;html=1;fontSize=18;points=[];strokeColor=none;" vertex="1" parent="1">
          <mxGeometry x="2923" y="2370" width="40" height="30" as="geometry" />
        </mxCell>
        <mxCell id="qrBDwkn-zHrqh7KRTo5C-857" value="S12" style="text;spacingTop=-5;align=center;verticalAlign=middle;fontStyle=0;html=1;fontSize=18;points=[];strokeColor=none;" vertex="1" parent="1">
          <mxGeometry x="2883" y="2370" width="40" height="30" as="geometry" />
        </mxCell>
        <mxCell id="qrBDwkn-zHrqh7KRTo5C-858" value="S17" style="text;spacingTop=-5;align=center;verticalAlign=middle;fontStyle=0;html=1;fontSize=18;points=[];strokeColor=none;" vertex="1" parent="1">
          <mxGeometry x="3080" y="2370" width="40" height="30" as="geometry" />
        </mxCell>
        <mxCell id="qrBDwkn-zHrqh7KRTo5C-859" value="" style="whiteSpace=wrap;fillColor=#E2F022;gradientColor=none;gradientDirection=east;strokeColor=none;html=1;fontColor=#23445d;" vertex="1" parent="1">
          <mxGeometry x="2640" y="2240" width="40" height="80" as="geometry" />
        </mxCell>
        <mxCell id="qrBDwkn-zHrqh7KRTo5C-860" value="" style="whiteSpace=wrap;fillColor=#12AAB5;gradientColor=none;gradientDirection=east;strokeColor=none;html=1;fontColor=#23445d;" vertex="1" parent="1">
          <mxGeometry x="2880" y="1880" width="42" height="80" as="geometry" />
        </mxCell>
        <mxCell id="qrBDwkn-zHrqh7KRTo5C-861" value="" style="whiteSpace=wrap;fillColor=#E2F022;gradientColor=none;gradientDirection=east;strokeColor=none;html=1;fontColor=#23445d;" vertex="1" parent="1">
          <mxGeometry x="2920.5" y="1880" width="79.5" height="80" as="geometry" />
        </mxCell>
        <mxCell id="qrBDwkn-zHrqh7KRTo5C-862" value="Tempo utilizzo CPU" style="text;spacingTop=-5;html=1;points=[];fontSize=15;" vertex="1" parent="1">
          <mxGeometry x="3356.25" y="2517.5" width="142.5" height="20" as="geometry" />
        </mxCell>
        <mxCell id="qrBDwkn-zHrqh7KRTo5C-863" value="Time-sharing" style="text;spacingTop=-5;align=center;verticalAlign=middle;fontSize=30;fontStyle=1;html=1;points=[]" vertex="1" parent="1">
          <mxGeometry x="2496" y="2512.5" width="810" height="45" as="geometry" />
        </mxCell>
        <mxCell id="qrBDwkn-zHrqh7KRTo5C-864" value="Processi" style="text;spacingTop=-5;html=1;fontSize=18;fontStyle=0;points=[]" vertex="1" parent="1">
          <mxGeometry x="2345.5" y="2530" width="80" height="20" as="geometry" />
        </mxCell>
        <mxCell id="qrBDwkn-zHrqh7KRTo5C-865" value="Tempo" style="text;spacingTop=-5;html=1;fontSize=18;fontStyle=0;points=[];strokeColor=none;" vertex="1" parent="1">
          <mxGeometry x="3330" y="3080" width="80" height="20" as="geometry" />
        </mxCell>
        <mxCell id="qrBDwkn-zHrqh7KRTo5C-866" value="S1" style="text;spacingTop=-5;align=center;verticalAlign=middle;fontStyle=0;html=1;fontSize=18;points=[];strokeColor=none;" vertex="1" parent="1">
          <mxGeometry x="2435.5" y="3100" width="40" height="30" as="geometry" />
        </mxCell>
        <mxCell id="qrBDwkn-zHrqh7KRTo5C-867" value="S2" style="text;spacingTop=-5;align=center;verticalAlign=middle;fontStyle=0;html=1;fontSize=18;points=[];strokeColor=none;" vertex="1" parent="1">
          <mxGeometry x="2482" y="3100" width="30" height="30" as="geometry" />
        </mxCell>
        <mxCell id="qrBDwkn-zHrqh7KRTo5C-868" value="S3" style="text;spacingTop=-5;align=center;verticalAlign=middle;fontStyle=0;html=1;fontSize=18;points=[];strokeColor=none;" vertex="1" parent="1">
          <mxGeometry x="2517.5" y="3100" width="40" height="30" as="geometry" />
        </mxCell>
        <mxCell id="qrBDwkn-zHrqh7KRTo5C-869" value="S4" style="text;spacingTop=-5;align=center;verticalAlign=middle;fontStyle=0;html=1;fontSize=18;points=[];strokeColor=none;" vertex="1" parent="1">
          <mxGeometry x="2560.5" y="3100" width="40" height="30" as="geometry" />
        </mxCell>
        <mxCell id="qrBDwkn-zHrqh7KRTo5C-870" value="S5" style="text;spacingTop=-5;align=center;verticalAlign=middle;fontStyle=0;html=1;fontSize=18;points=[];strokeColor=none;" vertex="1" parent="1">
          <mxGeometry x="2600.5" y="3100" width="40" height="30" as="geometry" />
        </mxCell>
        <mxCell id="qrBDwkn-zHrqh7KRTo5C-871" value="S11" style="text;spacingTop=-5;align=center;verticalAlign=middle;fontStyle=0;html=1;fontSize=18;points=[];strokeColor=none;" vertex="1" parent="1">
          <mxGeometry x="2838" y="3100" width="40" height="30" as="geometry" />
        </mxCell>
        <mxCell id="qrBDwkn-zHrqh7KRTo5C-872" value="S10" style="text;spacingTop=-5;align=center;verticalAlign=middle;fontStyle=0;html=1;fontSize=18;points=[];strokeColor=none;" vertex="1" parent="1">
          <mxGeometry x="2800" y="3100" width="40" height="30" as="geometry" />
        </mxCell>
        <mxCell id="qrBDwkn-zHrqh7KRTo5C-873" value="S9" style="text;spacingTop=-5;align=center;verticalAlign=middle;fontStyle=0;html=1;fontSize=18;points=[];strokeColor=none;" vertex="1" parent="1">
          <mxGeometry x="2760" y="3100" width="40" height="30" as="geometry" />
        </mxCell>
        <mxCell id="qrBDwkn-zHrqh7KRTo5C-874" value="S8" style="text;spacingTop=-5;align=center;verticalAlign=middle;fontStyle=0;html=1;fontSize=18;points=[];strokeColor=none;" vertex="1" parent="1">
          <mxGeometry x="2720" y="3100" width="41.25" height="30" as="geometry" />
        </mxCell>
        <mxCell id="qrBDwkn-zHrqh7KRTo5C-875" value="S7" style="text;spacingTop=-5;align=center;verticalAlign=middle;fontStyle=0;html=1;fontSize=18;points=[];strokeColor=none;" vertex="1" parent="1">
          <mxGeometry x="2680" y="3100" width="40" height="30" as="geometry" />
        </mxCell>
        <mxCell id="qrBDwkn-zHrqh7KRTo5C-876" value="S6" style="text;spacingTop=-5;align=center;verticalAlign=middle;fontStyle=0;html=1;fontSize=18;points=[];strokeColor=none;" vertex="1" parent="1">
          <mxGeometry x="2640" y="3100" width="40" height="30" as="geometry" />
        </mxCell>
        <mxCell id="qrBDwkn-zHrqh7KRTo5C-877" value="S16" style="text;spacingTop=-5;align=center;verticalAlign=middle;fontStyle=0;html=1;fontSize=18;points=[];strokeColor=none;" vertex="1" parent="1">
          <mxGeometry x="3035" y="3100" width="40" height="30" as="geometry" />
        </mxCell>
        <mxCell id="qrBDwkn-zHrqh7KRTo5C-878" value="S15" style="text;spacingTop=-5;align=center;verticalAlign=middle;fontStyle=0;html=1;fontSize=18;points=[];strokeColor=none;" vertex="1" parent="1">
          <mxGeometry x="2995" y="3100" width="40" height="30" as="geometry" />
        </mxCell>
        <mxCell id="qrBDwkn-zHrqh7KRTo5C-879" value="S14" style="text;spacingTop=-5;align=center;verticalAlign=middle;fontStyle=0;html=1;fontSize=18;points=[];strokeColor=none;" vertex="1" parent="1">
          <mxGeometry x="2958" y="3100" width="40" height="30" as="geometry" />
        </mxCell>
        <mxCell id="qrBDwkn-zHrqh7KRTo5C-880" value="S13" style="text;spacingTop=-5;align=center;verticalAlign=middle;fontStyle=0;html=1;fontSize=18;points=[];strokeColor=none;" vertex="1" parent="1">
          <mxGeometry x="2918" y="3100" width="40" height="30" as="geometry" />
        </mxCell>
        <mxCell id="qrBDwkn-zHrqh7KRTo5C-881" value="S12" style="text;spacingTop=-5;align=center;verticalAlign=middle;fontStyle=0;html=1;fontSize=18;points=[];strokeColor=none;" vertex="1" parent="1">
          <mxGeometry x="2878" y="3100" width="40" height="30" as="geometry" />
        </mxCell>
        <mxCell id="qrBDwkn-zHrqh7KRTo5C-882" value="S17" style="text;spacingTop=-5;align=center;verticalAlign=middle;fontStyle=0;html=1;fontSize=18;points=[];strokeColor=none;" vertex="1" parent="1">
          <mxGeometry x="3075" y="3100" width="40" height="30" as="geometry" />
        </mxCell>
        <mxCell id="qrBDwkn-zHrqh7KRTo5C-883" value="" style="whiteSpace=wrap;fillColor=#E2F022;gradientColor=none;gradientDirection=east;strokeColor=none;html=1;fontColor=#23445d;" vertex="1" parent="1">
          <mxGeometry x="2440.5" y="2960" width="39.5" height="80" as="geometry" />
        </mxCell>
        <mxCell id="qrBDwkn-zHrqh7KRTo5C-887" value="" style="whiteSpace=wrap;fillColor=#E2F022;gradientColor=none;gradientDirection=east;strokeColor=none;html=1;fontColor=#23445d;" vertex="1" parent="1">
          <mxGeometry x="2640" y="2840" width="39.5" height="80" as="geometry" />
        </mxCell>
        <mxCell id="qrBDwkn-zHrqh7KRTo5C-888" value="" style="whiteSpace=wrap;fillColor=#E2F022;gradientColor=none;gradientDirection=east;strokeColor=none;html=1;fontColor=#23445d;" vertex="1" parent="1">
          <mxGeometry x="2600.5" y="2960" width="39.5" height="80" as="geometry" />
        </mxCell>
        <mxCell id="qrBDwkn-zHrqh7KRTo5C-889" value="" style="whiteSpace=wrap;fillColor=#E2F022;gradientColor=none;gradientDirection=east;strokeColor=none;html=1;fontColor=#23445d;" vertex="1" parent="1">
          <mxGeometry x="2561" y="2600" width="39.5" height="80" as="geometry" />
        </mxCell>
        <mxCell id="qrBDwkn-zHrqh7KRTo5C-890" value="" style="whiteSpace=wrap;fillColor=#E2F022;gradientColor=none;gradientDirection=east;strokeColor=none;html=1;fontColor=#23445d;" vertex="1" parent="1">
          <mxGeometry x="2520.75" y="2720" width="39.5" height="80" as="geometry" />
        </mxCell>
        <mxCell id="qrBDwkn-zHrqh7KRTo5C-891" value="" style="whiteSpace=wrap;fillColor=#E2F022;gradientColor=none;gradientDirection=east;strokeColor=none;html=1;fontColor=#23445d;" vertex="1" parent="1">
          <mxGeometry x="2480.5" y="2840" width="39.5" height="80" as="geometry" />
        </mxCell>
        <mxCell id="qrBDwkn-zHrqh7KRTo5C-893" value="" style="whiteSpace=wrap;fillColor=#E2F022;gradientColor=none;gradientDirection=east;strokeColor=none;html=1;fontColor=#23445d;" vertex="1" parent="1">
          <mxGeometry x="2680" y="2600" width="39.5" height="80" as="geometry" />
        </mxCell>
        <mxCell id="qrBDwkn-zHrqh7KRTo5C-894" value="" style="whiteSpace=wrap;fillColor=#E2F022;gradientColor=none;gradientDirection=east;strokeColor=none;html=1;fontColor=#23445d;" vertex="1" parent="1">
          <mxGeometry x="2720" y="2960" width="39.5" height="80" as="geometry" />
        </mxCell>
        <mxCell id="qrBDwkn-zHrqh7KRTo5C-895" value="" style="whiteSpace=wrap;fillColor=#E2F022;gradientColor=none;gradientDirection=east;strokeColor=none;html=1;fontColor=#23445d;" vertex="1" parent="1">
          <mxGeometry x="2761.25" y="2600" width="39.5" height="80" as="geometry" />
        </mxCell>
        <mxCell id="qrBDwkn-zHrqh7KRTo5C-896" value="" style="whiteSpace=wrap;fillColor=#E2F022;gradientColor=none;gradientDirection=east;strokeColor=none;html=1;fontColor=#23445d;" vertex="1" parent="1">
          <mxGeometry x="2800.75" y="2960" width="39.5" height="80" as="geometry" />
        </mxCell>
        <mxCell id="qrBDwkn-zHrqh7KRTo5C-897" value="" style="whiteSpace=wrap;fillColor=#E2F022;gradientColor=none;gradientDirection=east;strokeColor=none;html=1;fontColor=#23445d;" vertex="1" parent="1">
          <mxGeometry x="2840.5" y="2600" width="119.5" height="80" as="geometry" />
        </mxCell>
        <mxCell id="qrBDwkn-zHrqh7KRTo5C-898" value="" style="endArrow=none;html=1;rounded=0;entryX=0;entryY=0.5;entryDx=0;entryDy=0;" edge="1" parent="1" target="qrBDwkn-zHrqh7KRTo5C-889">
          <mxGeometry width="50" height="50" relative="1" as="geometry">
            <mxPoint x="2400" y="2640" as="sourcePoint" />
            <mxPoint x="2485.25" y="2615" as="targetPoint" />
          </mxGeometry>
        </mxCell>
        <mxCell id="qrBDwkn-zHrqh7KRTo5C-899" value="" style="endArrow=none;html=1;rounded=0;entryX=0;entryY=0.5;entryDx=0;entryDy=0;" edge="1" parent="1" target="qrBDwkn-zHrqh7KRTo5C-890">
          <mxGeometry width="50" height="50" relative="1" as="geometry">
            <mxPoint x="2400" y="2760" as="sourcePoint" />
            <mxPoint x="2480" y="2735" as="targetPoint" />
          </mxGeometry>
        </mxCell>
        <mxCell id="qrBDwkn-zHrqh7KRTo5C-900" value="" style="endArrow=none;html=1;rounded=0;entryX=0;entryY=0.5;entryDx=0;entryDy=0;" edge="1" parent="1" target="qrBDwkn-zHrqh7KRTo5C-891">
          <mxGeometry width="50" height="50" relative="1" as="geometry">
            <mxPoint x="2400" y="2880" as="sourcePoint" />
            <mxPoint x="2960" y="2820" as="targetPoint" />
          </mxGeometry>
        </mxCell>
        <mxCell id="qrBDwkn-zHrqh7KRTo5C-901" value="" style="endArrow=none;html=1;rounded=0;entryX=0;entryY=0.5;entryDx=0;entryDy=0;" edge="1" parent="1" target="qrBDwkn-zHrqh7KRTo5C-883">
          <mxGeometry width="50" height="50" relative="1" as="geometry">
            <mxPoint x="2400" y="3000" as="sourcePoint" />
            <mxPoint x="2970" y="2830" as="targetPoint" />
          </mxGeometry>
        </mxCell>
        <mxCell id="qrBDwkn-zHrqh7KRTo5C-903" value="" style="endArrow=none;html=1;rounded=0;exitX=1;exitY=0.5;exitDx=0;exitDy=0;entryX=0;entryY=0.5;entryDx=0;entryDy=0;" edge="1" parent="1" source="qrBDwkn-zHrqh7KRTo5C-891" target="qrBDwkn-zHrqh7KRTo5C-887">
          <mxGeometry width="50" height="50" relative="1" as="geometry">
            <mxPoint x="2930" y="2890" as="sourcePoint" />
            <mxPoint x="2980" y="2840" as="targetPoint" />
          </mxGeometry>
        </mxCell>
        <mxCell id="qrBDwkn-zHrqh7KRTo5C-904" value="" style="endArrow=none;html=1;rounded=0;" edge="1" parent="1">
          <mxGeometry width="50" height="50" relative="1" as="geometry">
            <mxPoint x="2680" y="2880" as="sourcePoint" />
            <mxPoint x="3310" y="2880" as="targetPoint" />
          </mxGeometry>
        </mxCell>
        <mxCell id="qrBDwkn-zHrqh7KRTo5C-905" value="" style="endArrow=none;html=1;rounded=0;exitX=1;exitY=0.5;exitDx=0;exitDy=0;entryX=0;entryY=0.5;entryDx=0;entryDy=0;" edge="1" parent="1" source="qrBDwkn-zHrqh7KRTo5C-883" target="qrBDwkn-zHrqh7KRTo5C-888">
          <mxGeometry width="50" height="50" relative="1" as="geometry">
            <mxPoint x="2950" y="2910" as="sourcePoint" />
            <mxPoint x="3000" y="2860" as="targetPoint" />
          </mxGeometry>
        </mxCell>
        <mxCell id="qrBDwkn-zHrqh7KRTo5C-906" value="" style="endArrow=none;html=1;rounded=0;exitX=1;exitY=0.5;exitDx=0;exitDy=0;entryX=0;entryY=0.5;entryDx=0;entryDy=0;" edge="1" parent="1" source="qrBDwkn-zHrqh7KRTo5C-888" target="qrBDwkn-zHrqh7KRTo5C-894">
          <mxGeometry width="50" height="50" relative="1" as="geometry">
            <mxPoint x="2960" y="2920" as="sourcePoint" />
            <mxPoint x="3010" y="2870" as="targetPoint" />
          </mxGeometry>
        </mxCell>
        <mxCell id="qrBDwkn-zHrqh7KRTo5C-907" value="" style="endArrow=none;html=1;rounded=0;exitX=1;exitY=0.5;exitDx=0;exitDy=0;entryX=0;entryY=0.5;entryDx=0;entryDy=0;" edge="1" parent="1" source="qrBDwkn-zHrqh7KRTo5C-894" target="qrBDwkn-zHrqh7KRTo5C-896">
          <mxGeometry width="50" height="50" relative="1" as="geometry">
            <mxPoint x="2970" y="2930" as="sourcePoint" />
            <mxPoint x="3020" y="2880" as="targetPoint" />
          </mxGeometry>
        </mxCell>
        <mxCell id="qrBDwkn-zHrqh7KRTo5C-908" value="" style="endArrow=none;html=1;rounded=0;exitX=1;exitY=0.5;exitDx=0;exitDy=0;" edge="1" parent="1" source="qrBDwkn-zHrqh7KRTo5C-896">
          <mxGeometry width="50" height="50" relative="1" as="geometry">
            <mxPoint x="2980" y="2940" as="sourcePoint" />
            <mxPoint x="3310" y="3000" as="targetPoint" />
          </mxGeometry>
        </mxCell>
        <mxCell id="qrBDwkn-zHrqh7KRTo5C-909" value="" style="endArrow=none;html=1;rounded=0;exitX=1;exitY=0.5;exitDx=0;exitDy=0;" edge="1" parent="1" source="qrBDwkn-zHrqh7KRTo5C-890">
          <mxGeometry width="50" height="50" relative="1" as="geometry">
            <mxPoint x="2990" y="2950" as="sourcePoint" />
            <mxPoint x="3310" y="2760" as="targetPoint" />
          </mxGeometry>
        </mxCell>
        <mxCell id="qrBDwkn-zHrqh7KRTo5C-910" value="" style="endArrow=none;html=1;rounded=0;exitX=1;exitY=0.5;exitDx=0;exitDy=0;" edge="1" parent="1" source="qrBDwkn-zHrqh7KRTo5C-897">
          <mxGeometry width="50" height="50" relative="1" as="geometry">
            <mxPoint x="3000" y="2960" as="sourcePoint" />
            <mxPoint x="3310" y="2640" as="targetPoint" />
          </mxGeometry>
        </mxCell>
        <mxCell id="qrBDwkn-zHrqh7KRTo5C-911" value="" style="endArrow=none;html=1;rounded=0;exitX=1;exitY=0.5;exitDx=0;exitDy=0;entryX=0;entryY=0.5;entryDx=0;entryDy=0;" edge="1" parent="1" source="qrBDwkn-zHrqh7KRTo5C-889" target="qrBDwkn-zHrqh7KRTo5C-893">
          <mxGeometry width="50" height="50" relative="1" as="geometry">
            <mxPoint x="3010" y="2970" as="sourcePoint" />
            <mxPoint x="3060" y="2920" as="targetPoint" />
          </mxGeometry>
        </mxCell>
        <mxCell id="qrBDwkn-zHrqh7KRTo5C-912" value="" style="endArrow=none;html=1;rounded=0;exitX=1;exitY=0.5;exitDx=0;exitDy=0;entryX=0;entryY=0.5;entryDx=0;entryDy=0;" edge="1" parent="1" source="qrBDwkn-zHrqh7KRTo5C-893" target="qrBDwkn-zHrqh7KRTo5C-895">
          <mxGeometry width="50" height="50" relative="1" as="geometry">
            <mxPoint x="3020" y="2980" as="sourcePoint" />
            <mxPoint x="3070" y="2930" as="targetPoint" />
          </mxGeometry>
        </mxCell>
        <mxCell id="qrBDwkn-zHrqh7KRTo5C-913" value="" style="endArrow=none;html=1;rounded=0;exitX=1;exitY=0.5;exitDx=0;exitDy=0;entryX=0;entryY=0.5;entryDx=0;entryDy=0;" edge="1" parent="1" source="qrBDwkn-zHrqh7KRTo5C-895" target="qrBDwkn-zHrqh7KRTo5C-897">
          <mxGeometry width="50" height="50" relative="1" as="geometry">
            <mxPoint x="3030" y="2990" as="sourcePoint" />
            <mxPoint x="3080" y="2940" as="targetPoint" />
          </mxGeometry>
        </mxCell>
        <mxCell id="qrBDwkn-zHrqh7KRTo5C-914" value="" style="endArrow=none;html=1;rounded=0;entryX=0;entryY=0.5;entryDx=0;entryDy=0;" edge="1" parent="1" target="qrBDwkn-zHrqh7KRTo5C-839">
          <mxGeometry width="50" height="50" relative="1" as="geometry">
            <mxPoint x="2410" y="1920" as="sourcePoint" />
            <mxPoint x="2918" y="2030" as="targetPoint" />
          </mxGeometry>
        </mxCell>
        <mxCell id="qrBDwkn-zHrqh7KRTo5C-915" value="" style="endArrow=none;html=1;rounded=0;exitX=1;exitY=0.5;exitDx=0;exitDy=0;" edge="1" parent="1" source="qrBDwkn-zHrqh7KRTo5C-861">
          <mxGeometry width="50" height="50" relative="1" as="geometry">
            <mxPoint x="2878" y="2090" as="sourcePoint" />
            <mxPoint x="3320" y="1920" as="targetPoint" />
          </mxGeometry>
        </mxCell>
        <mxCell id="qrBDwkn-zHrqh7KRTo5C-916" value="" style="endArrow=none;html=1;rounded=0;exitX=1;exitY=0.5;exitDx=0;exitDy=0;" edge="1" parent="1" source="qrBDwkn-zHrqh7KRTo5C-840">
          <mxGeometry width="50" height="50" relative="1" as="geometry">
            <mxPoint x="2888" y="2100" as="sourcePoint" />
            <mxPoint x="3320" y="2040" as="targetPoint" />
          </mxGeometry>
        </mxCell>
        <mxCell id="qrBDwkn-zHrqh7KRTo5C-917" value="" style="endArrow=none;html=1;rounded=0;exitX=1;exitY=0.5;exitDx=0;exitDy=0;" edge="1" parent="1" source="qrBDwkn-zHrqh7KRTo5C-838">
          <mxGeometry width="50" height="50" relative="1" as="geometry">
            <mxPoint x="2898" y="2110" as="sourcePoint" />
            <mxPoint x="3320" y="2160" as="targetPoint" />
          </mxGeometry>
        </mxCell>
        <mxCell id="qrBDwkn-zHrqh7KRTo5C-918" value="" style="endArrow=none;html=1;rounded=0;exitX=1;exitY=0.5;exitDx=0;exitDy=0;" edge="1" parent="1" source="qrBDwkn-zHrqh7KRTo5C-859">
          <mxGeometry width="50" height="50" relative="1" as="geometry">
            <mxPoint x="2908" y="2120" as="sourcePoint" />
            <mxPoint x="3320" y="2280" as="targetPoint" />
          </mxGeometry>
        </mxCell>
        <mxCell id="qrBDwkn-zHrqh7KRTo5C-919" value="" style="endArrow=none;html=1;rounded=0;entryX=0;entryY=0.5;entryDx=0;entryDy=0;" edge="1" parent="1" target="qrBDwkn-zHrqh7KRTo5C-840">
          <mxGeometry width="50" height="50" relative="1" as="geometry">
            <mxPoint x="2410" y="2040" as="sourcePoint" />
            <mxPoint x="2968" y="2080" as="targetPoint" />
          </mxGeometry>
        </mxCell>
        <mxCell id="qrBDwkn-zHrqh7KRTo5C-920" value="" style="endArrow=none;html=1;rounded=0;entryX=0;entryY=0.5;entryDx=0;entryDy=0;" edge="1" parent="1" target="qrBDwkn-zHrqh7KRTo5C-841">
          <mxGeometry width="50" height="50" relative="1" as="geometry">
            <mxPoint x="2410" y="2160" as="sourcePoint" />
            <mxPoint x="2978" y="2090" as="targetPoint" />
          </mxGeometry>
        </mxCell>
        <mxCell id="qrBDwkn-zHrqh7KRTo5C-921" value="" style="endArrow=none;html=1;rounded=0;entryX=0;entryY=0.5;entryDx=0;entryDy=0;" edge="1" parent="1" target="qrBDwkn-zHrqh7KRTo5C-836">
          <mxGeometry width="50" height="50" relative="1" as="geometry">
            <mxPoint x="2410" y="2280" as="sourcePoint" />
            <mxPoint x="2988" y="2100" as="targetPoint" />
          </mxGeometry>
        </mxCell>
        <mxCell id="qrBDwkn-zHrqh7KRTo5C-922" value="" style="endArrow=none;html=1;rounded=0;exitX=1.15;exitY=0.5;exitDx=0;exitDy=0;exitPerimeter=0;entryX=0;entryY=0.5;entryDx=0;entryDy=0;" edge="1" parent="1" source="qrBDwkn-zHrqh7KRTo5C-752" target="qrBDwkn-zHrqh7KRTo5C-820">
          <mxGeometry width="50" height="50" relative="1" as="geometry">
            <mxPoint x="2512.5" y="1200" as="sourcePoint" />
            <mxPoint x="2562.5" y="1150" as="targetPoint" />
          </mxGeometry>
        </mxCell>
        <mxCell id="qrBDwkn-zHrqh7KRTo5C-923" value="" style="endArrow=none;html=1;rounded=0;entryX=0;entryY=0.5;entryDx=0;entryDy=0;" edge="1" parent="1" target="qrBDwkn-zHrqh7KRTo5C-819">
          <mxGeometry width="50" height="50" relative="1" as="geometry">
            <mxPoint x="2440" y="1280" as="sourcePoint" />
            <mxPoint x="3005" y="1310" as="targetPoint" />
          </mxGeometry>
        </mxCell>
        <mxCell id="qrBDwkn-zHrqh7KRTo5C-924" value="" style="endArrow=none;html=1;rounded=0;exitX=1.083;exitY=0.5;exitDx=0;exitDy=0;exitPerimeter=0;entryX=0;entryY=0.5;entryDx=0;entryDy=0;" edge="1" parent="1" source="747" target="qrBDwkn-zHrqh7KRTo5C-812">
          <mxGeometry width="50" height="50" relative="1" as="geometry">
            <mxPoint x="2965" y="1370" as="sourcePoint" />
            <mxPoint x="3015" y="1320" as="targetPoint" />
          </mxGeometry>
        </mxCell>
        <mxCell id="qrBDwkn-zHrqh7KRTo5C-925" value="" style="endArrow=none;html=1;rounded=0;entryX=0;entryY=0.5;entryDx=0;entryDy=0;" edge="1" parent="1" source="746" target="qrBDwkn-zHrqh7KRTo5C-813">
          <mxGeometry width="50" height="50" relative="1" as="geometry">
            <mxPoint x="2442" y="1521" as="sourcePoint" />
            <mxPoint x="3025" y="1330" as="targetPoint" />
          </mxGeometry>
        </mxCell>
        <mxCell id="qrBDwkn-zHrqh7KRTo5C-926" value="" style="endArrow=none;html=1;rounded=0;exitX=1;exitY=0.5;exitDx=0;exitDy=0;" edge="1" parent="1" source="qrBDwkn-zHrqh7KRTo5C-816">
          <mxGeometry width="50" height="50" relative="1" as="geometry">
            <mxPoint x="2985" y="1390" as="sourcePoint" />
            <mxPoint x="3350" y="1520" as="targetPoint" />
          </mxGeometry>
        </mxCell>
        <mxCell id="qrBDwkn-zHrqh7KRTo5C-927" value="" style="endArrow=none;html=1;rounded=0;exitX=1;exitY=0.5;exitDx=0;exitDy=0;" edge="1" parent="1" source="qrBDwkn-zHrqh7KRTo5C-822">
          <mxGeometry width="50" height="50" relative="1" as="geometry">
            <mxPoint x="2995" y="1400" as="sourcePoint" />
            <mxPoint x="3350" y="1400" as="targetPoint" />
          </mxGeometry>
        </mxCell>
        <mxCell id="qrBDwkn-zHrqh7KRTo5C-928" value="" style="endArrow=none;html=1;rounded=0;exitX=1;exitY=0.5;exitDx=0;exitDy=0;" edge="1" parent="1" source="qrBDwkn-zHrqh7KRTo5C-819">
          <mxGeometry width="50" height="50" relative="1" as="geometry">
            <mxPoint x="3005" y="1410" as="sourcePoint" />
            <mxPoint x="3350" y="1280" as="targetPoint" />
          </mxGeometry>
        </mxCell>
        <mxCell id="qrBDwkn-zHrqh7KRTo5C-929" value="" style="endArrow=none;html=1;rounded=0;exitX=1;exitY=0.5;exitDx=0;exitDy=0;" edge="1" parent="1" source="qrBDwkn-zHrqh7KRTo5C-824">
          <mxGeometry width="50" height="50" relative="1" as="geometry">
            <mxPoint x="3015" y="1420" as="sourcePoint" />
            <mxPoint x="3350" y="1160" as="targetPoint" />
          </mxGeometry>
        </mxCell>
      </root>
    </mxGraphModel>
  </diagram>
</mxfile>
